<svg width="24" height="25" viewBox="0 0 24 25" fill="none" xmlns="http://www.w3.org/2000/svg">
<rect width="24" height="25" fill="#1E1E1E"/>
<rect width="2493" height="1503" transform="translate(-346 -933)" fill="black"/>
<rect width="360" height="800" transform="translate(-235 -728)" fill="#F8FAFF"/>
<path d="M9.647 10.2939C9.35645 10.2709 9.06525 10.3306 8.81152 10.4653C8.55779 10.6 8.35335 10.8034 8.22495 11.0488C8.09655 11.2942 8.05017 11.5703 8.0919 11.8408C8.13362 12.1114 8.2615 12.3638 8.45879 12.5651C8.65609 12.7664 8.91361 12.9071 9.19764 12.9689C9.48168 13.0307 9.779 13.0107 10.0507 12.9114C10.3224 12.8122 10.5558 12.6384 10.7203 12.4127C10.8849 12.187 10.973 11.9201 10.973 11.6467C10.9808 11.4762 10.9526 11.306 10.8902 11.1457C10.8278 10.9854 10.7322 10.8383 10.6091 10.7126C10.4859 10.587 10.3376 10.4854 10.1725 10.4135C10.0074 10.3416 9.82884 10.301 9.647 10.2939ZM14.392 10.2939C14.1015 10.2709 13.8103 10.3306 13.5565 10.4653C13.3028 10.6 13.0983 10.8034 12.9699 11.0488C12.8415 11.2942 12.7952 11.5703 12.8369 11.8408C12.8786 12.1114 13.0065 12.3638 13.2038 12.5651C13.4011 12.7664 13.6586 12.9071 13.9426 12.9689C14.2267 13.0307 14.524 13.0107 14.7957 12.9114C15.0674 12.8122 15.3008 12.6384 15.4653 12.4127C15.6299 12.187 15.718 11.9201 15.718 11.6467C15.7258 11.4762 15.6976 11.306 15.6352 11.1457C15.5728 10.9854 15.4772 10.8383 15.3541 10.7126C15.2309 10.587 15.0826 10.4854 14.9175 10.4135C14.7524 10.3416 14.5738 10.301 14.392 10.2939Z" fill="#858585"/>
<path d="M20.71 0.0686035H3.28999C2.93915 0.0693412 2.5919 0.134873 2.26807 0.261454C1.94425 0.388036 1.65019 0.573188 1.40271 0.806333C1.15523 1.03948 0.959169 1.31605 0.825726 1.62025C0.692283 1.92445 0.624074 2.25031 0.624994 2.57923V19.0567C0.624074 19.3856 0.692283 19.7115 0.825726 20.0157C0.959169 20.3199 1.15523 20.5965 1.40271 20.8296C1.65019 21.0628 1.94425 21.2479 2.26807 21.3745C2.5919 21.5011 2.93915 21.5666 3.28999 21.5674H18.032L17.343 19.3127L19.007 20.763L20.58 22.128L23.375 24.4436V2.57923C23.3759 2.25031 23.3077 1.92445 23.1743 1.62025C23.0408 1.31605 22.8448 1.03948 22.5973 0.806333C22.3498 0.573188 22.0557 0.388036 21.7319 0.261454C21.4081 0.134873 21.0608 0.0693412 20.71 0.0686035ZM15.692 15.9855C15.692 15.9855 15.224 15.4614 14.834 14.9983C15.7763 14.7903 16.6098 14.2766 17.187 13.548C16.7192 13.8398 16.2177 14.081 15.692 14.267C15.0872 14.5091 14.4547 14.6849 13.807 14.7911C12.6936 14.9833 11.5518 14.9791 10.44 14.7789C9.78729 14.6592 9.14763 14.4838 8.529 14.2549C8.2029 14.1373 7.88582 13.9988 7.57999 13.8405C7.54099 13.8161 7.502 13.8039 7.463 13.7795C7.44344 13.7704 7.42582 13.758 7.411 13.743C7.28629 13.6793 7.16482 13.6101 7.04699 13.5358C7.60332 14.2491 8.40803 14.7578 9.32199 14.9739C8.93199 15.437 8.45099 15.9855 8.45099 15.9855C7.67877 16.005 6.91326 15.8462 6.22185 15.5232C5.53044 15.2002 4.93434 14.7228 4.48599 14.133C4.5282 11.6622 5.16829 9.23271 6.35799 7.02767C7.40493 6.25676 8.68136 5.80962 10.011 5.74798L10.141 5.89423C8.89005 6.18445 7.7227 6.72957 6.72199 7.49079C6.72199 7.49079 7.00799 7.34454 7.489 7.13735C8.42345 6.73745 9.41936 6.47833 10.44 6.36954C10.5128 6.35542 10.5867 6.34726 10.661 6.34517C11.5322 6.23876 12.4138 6.23058 13.287 6.32079C14.6602 6.46782 15.9895 6.86529 17.2 7.49079C16.25 6.76585 15.1467 6.23828 13.963 5.94298L14.145 5.74798C15.4746 5.80962 16.7511 6.25676 17.798 7.02767C18.9877 9.23271 19.6278 11.6622 19.67 14.133C19.218 14.7222 18.6194 15.1989 17.9261 15.5218C17.2328 15.8446 16.4659 16.0038 15.692 15.9855Z" fill="#858585"/>
</svg>
