<svg width="37" height="39" viewBox="0 0 37 39" fill="none" xmlns="http://www.w3.org/2000/svg">
<rect width="37" height="39" fill="#1E1E1E"/>
<rect width="6692" height="1887" transform="translate(-559 -1139)" fill="black"/>
<g clip-path="url(#clip0_0_1)">
<rect width="1440" height="1024" transform="translate(-400 -915)" fill="#F8FAFF"/>
<rect x="-400" y="-915" width="1440" height="1024" fill="#F8FAFF"/>
<path d="M-400 -915L319.988 -915L169.314 109H-400V-915Z" fill="#605BFF"/>
<path d="M14.8235 16.3605C14.3695 16.3237 13.9145 16.4192 13.5181 16.6348C13.1216 16.8503 12.8022 17.1757 12.6015 17.5683C12.4009 17.961 12.3285 18.4027 12.3936 18.8356C12.4588 19.2685 12.6587 19.6724 12.9669 19.9944C13.2752 20.3165 13.6776 20.5417 14.1214 20.6406C14.5652 20.7394 15.0297 20.7074 15.4543 20.5486C15.8788 20.3898 16.2435 20.1117 16.5006 19.7506C16.7577 19.3896 16.8953 18.9624 16.8954 18.525C16.9075 18.2523 16.8636 17.9799 16.766 17.7234C16.6684 17.467 16.5192 17.2315 16.3267 17.0305C16.1343 16.8295 15.9025 16.6668 15.6446 16.5519C15.3866 16.4369 15.1076 16.3719 14.8235 16.3605ZM22.2376 16.3605C21.7836 16.3237 21.3286 16.4192 20.9321 16.6348C20.5357 16.8503 20.2162 17.1757 20.0156 17.5683C19.815 17.961 19.7425 18.4027 19.8077 18.8356C19.8729 19.2685 20.0727 19.6724 20.381 19.9944C20.6893 20.3165 21.0916 20.5417 21.5354 20.6406C21.9792 20.7394 22.4438 20.7074 22.8683 20.5486C23.2928 20.3898 23.6575 20.1117 23.9147 19.7506C24.1718 19.3896 24.3094 18.9624 24.3094 18.525C24.3216 18.2523 24.2776 17.9799 24.1801 17.7234C24.0825 17.467 23.9332 17.2315 23.7408 17.0305C23.5484 16.8295 23.3166 16.6668 23.0586 16.5519C22.8007 16.4369 22.5217 16.3719 22.2376 16.3605Z" fill="white"/>
<path d="M32.1094 0H4.89064C4.34244 0.00118037 3.79986 0.106031 3.29388 0.308561C2.78791 0.511092 2.32845 0.807335 1.94176 1.18037C1.55507 1.5534 1.24873 1.99591 1.04022 2.48263C0.831716 2.96935 0.725139 3.49073 0.726577 4.017V30.381C0.725139 30.9073 0.831716 31.4287 1.04022 31.9154C1.24873 32.4021 1.55507 32.8446 1.94176 33.2176C2.32845 33.5907 2.78791 33.8869 3.29388 34.0894C3.79986 34.292 4.34244 34.3968 4.89064 34.398H27.925L26.8485 30.7905L29.4485 33.111L31.9063 35.295L36.2735 39V4.017C36.2749 3.49073 36.1683 2.96935 35.9598 2.48263C35.7513 1.99591 35.445 1.5534 35.0583 1.18037C34.6716 0.807335 34.2121 0.511092 33.7062 0.308561C33.2002 0.106031 32.6576 0.00118037 32.1094 0ZM24.2688 25.467C24.2688 25.467 23.5375 24.6285 22.9281 23.8875C24.4005 23.5547 25.7028 22.7327 26.6047 21.567C25.8738 22.0339 25.0902 22.4199 24.2688 22.7175C23.3238 23.1047 22.3355 23.3861 21.3235 23.556C19.5838 23.8635 17.7997 23.8569 16.0625 23.5365C15.0427 23.3449 14.0432 23.0643 13.0766 22.698C12.5671 22.5099 12.0716 22.2884 11.5938 22.035C11.5328 21.996 11.4719 21.9765 11.411 21.9375C11.3804 21.9229 11.3529 21.9031 11.3297 21.879C11.1348 21.7771 10.9451 21.6664 10.761 21.5475C11.6302 22.6888 12.8876 23.5027 14.3156 23.8485C13.7063 24.5895 12.9547 25.467 12.9547 25.467C11.7481 25.4982 10.552 25.2442 9.47167 24.7274C8.39134 24.2105 7.45993 23.4466 6.75939 22.503C6.82534 18.5498 7.82548 14.6626 9.68439 11.1345C11.3202 9.90106 13.3146 9.18562 15.3922 9.087L15.5953 9.321C13.6407 9.78536 11.8167 10.6575 10.2531 11.8755C10.2531 11.8755 10.7 11.6415 11.4516 11.31C12.9117 10.6702 14.4678 10.2556 16.0625 10.0815C16.1762 10.0589 16.2918 10.0459 16.4078 10.0425C17.769 9.87225 19.1465 9.85916 20.511 10.0035C22.6566 10.2387 24.7337 10.8747 26.625 11.8755C25.1407 10.7156 23.4167 9.87149 21.5672 9.399L21.8516 9.087C23.9291 9.18562 25.9235 9.90106 27.5594 11.1345C29.4183 14.6626 30.4184 18.5498 30.4844 22.503C29.7782 23.4457 28.8428 24.2085 27.7595 24.7251C26.6763 25.2416 25.4779 25.4963 24.2688 25.467Z" fill="white"/>
</g>
<defs>
<clipPath id="clip0_0_1">
<rect width="1440" height="1024" fill="white" transform="translate(-400 -915)"/>
</clipPath>
</defs>
</svg>
