<svg width="25" height="23" viewBox="0 0 25 23" fill="none" xmlns="http://www.w3.org/2000/svg">
<path d="M22.3813 0.0686035H2.61875C1.65 0.0686035 0.875 0.818603 0.875 1.66235V20.8811C0.875 21.7249 1.65 22.4749 2.61875 22.4749H22.3813C23.35 22.4749 24.125 21.7249 24.125 20.8811V1.66235C24.125 0.818603 23.35 0.0686035 22.3813 0.0686035ZM7.75313 19.1936H4.3625V8.5061H7.75313V19.1936ZM6.10625 7.0061C5.04062 7.0061 4.07188 6.16235 4.07188 5.03735C4.07188 3.91235 4.94375 3.0686 6.10625 3.0686C7.17187 3.0686 8.14062 3.91235 8.14062 5.03735C8.14062 6.16235 7.17187 7.0061 6.10625 7.0061ZM20.7344 19.0999H17.3438V13.8499C17.3438 12.6311 17.3438 10.9436 15.5031 10.9436C13.6625 10.9436 13.4688 12.3499 13.4688 13.6624V19.0061H10.0781V8.5061H13.275V9.91235H13.3719C13.8562 9.0686 15.0187 8.1311 16.6656 8.1311C20.1531 8.1311 20.8313 10.3811 20.8313 13.2874V19.0999H20.7344Z" fill="#858585"/>
</svg>
